# xmcd
# 
# Track frame offsets:
#     150
#     14284
#     32167
#     53635
#     64730
#     84210
#     104270
#     125818
#     146928
#     164687
#     186237
# 
# Disc length: 2720
# 
# Revision: 1
# Processed by: cddbd v1.5.2PL0 Copyright (c) Steve Scherf et al.
# Submitted via: fre:ac v1.0.27
# 
DISCID=9a0a9e0b
DTITLE=Kelly Joe Phelps - Western Bell
DYEAR=2009
DGENRE=American Folk
TTITLE0=Western Bell
TTITLE1=Sovereign Wyoming
TTITLE2=Blowing Dust 40 Miles
TTITLE3=American Exchange Hotel
TTITLE4=Hometown with Melody
TTITLE5=Hattie's Hat
TTITLE6=The Jenny Spin
TTITLE7=Murdo
TTITLE8=East to Kansas
TTITLE9=Blue Daughter Tattoo
TTITLE10=Little Family
EXTD=
EXTT0=
EXTT1=
EXTT2=
EXTT3=
EXTT4=
EXTT5=
EXTT6=
EXTT7=
EXTT8=
EXTT9=
EXTT10=
PLAYORDER=
